<svg width="23" height="23" viewBox="0 0 23 23" fill="none" xmlns="http://www.w3.org/2000/svg">
<path d="M19.0581 1.70459H3.86048C2.66638 1.70459 1.68939 2.68158 1.68939 3.87568V19.0733C1.68939 20.2685 2.66638 21.2444 3.86048 21.2444H11.4593V13.6456H9.2882V10.9589H11.4593V8.73349C11.4593 6.38437 12.775 4.73434 15.5474 4.73434L17.5047 4.73651V7.56436H16.2053C15.1263 7.56436 14.7159 8.37417 14.7159 9.12537V10.9599H17.5036L16.887 13.6456H14.7159V21.2444H19.0581C20.2522 21.2444 21.2292 20.2685 21.2292 19.0733V3.87568C21.2292 2.68158 20.2522 1.70459 19.0581 1.70459Z" fill="white"/>
</svg>
