<svg width="22" height="23" viewBox="0 0 22 23" fill="none" xmlns="http://www.w3.org/2000/svg">
<g clip-path="url(#clip0_39_672)">
<path d="M15.6664 0.688308C16.7682 0.738967 17.5299 0.900894 18.2337 1.17409C18.901 1.42359 19.5052 1.81709 20.0031 2.32657C20.5126 2.82456 20.9061 3.42869 21.1556 4.09601C21.4288 4.80071 21.5907 5.5615 21.6414 6.66332C21.7038 8.0293 21.7111 8.51056 21.7111 11.4741C21.7111 14.4376 21.7038 14.9189 21.6414 16.2849C21.5907 17.3867 21.4288 18.1484 21.1556 18.8531C20.906 19.5201 20.5125 20.1239 20.0031 20.6216C19.5052 21.1311 18.901 21.5246 18.2337 21.7741C17.529 22.0473 16.7682 22.2092 15.6664 22.2599C14.3004 22.3223 13.8201 22.3295 10.8556 22.3295C7.89118 22.3295 7.40992 22.3223 6.04485 22.2599C4.94303 22.2092 4.18134 22.0473 3.47664 21.7741C2.80963 21.5245 2.20581 21.131 1.70811 20.6216C1.19862 20.1236 0.805124 19.5195 0.55562 18.8522C0.282425 18.1475 0.120498 17.3867 0.0698388 16.2849C0.00742007 14.9207 0.000183105 14.4394 0.000183105 11.4741C0.000183105 8.50965 0.00742007 8.02749 0.0698388 6.66332C0.120498 5.5615 0.282425 4.79981 0.55562 4.09601C0.805124 3.42869 1.19862 2.82456 1.70811 2.32657C2.20583 1.8172 2.80964 1.42371 3.47664 1.17409C4.18224 0.900894 4.94303 0.738967 6.04485 0.688308C7.40902 0.625889 7.89028 0.618652 10.8556 0.618652C13.8201 0.618652 14.3022 0.625889 15.6664 0.688308ZM10.8556 3.03127C7.92465 3.03127 7.47596 3.03761 6.15431 3.09822C5.31573 3.13621 4.81276 3.24295 4.3505 3.42297C3.99569 3.55163 3.67508 3.7599 3.41331 4.03178C3.14085 4.29308 2.93249 4.61382 2.8045 4.96897C2.62539 5.43033 2.51774 5.9342 2.47975 6.77278C2.41914 8.09443 2.4128 8.54312 2.4128 11.4741C2.4128 14.4051 2.41914 14.8538 2.47975 16.1754C2.51774 17.014 2.62449 17.517 2.8045 17.9783C2.95829 18.3727 3.12112 18.6233 3.41331 18.9164C3.70641 19.2095 3.95699 19.3723 4.3505 19.5252C4.81186 19.7043 5.31573 19.812 6.15431 19.85C7.47687 19.9106 7.92556 19.9169 10.8556 19.9169C13.7866 19.9169 14.2344 19.9106 15.5569 19.85C16.3955 19.812 16.8985 19.7052 17.3607 19.5252C17.7156 19.3966 18.0362 19.1883 18.2979 18.9164C18.591 18.6233 18.7539 18.3727 18.9067 17.9792C19.0859 17.5179 19.1935 17.014 19.2315 16.1754C19.2921 14.8528 19.2984 14.4042 19.2984 11.4741C19.2984 8.54403 19.2921 8.09534 19.2315 6.77278C19.1935 5.9342 19.0868 5.43123 18.9067 4.96987C18.7788 4.61443 18.5705 4.29338 18.2979 4.03178C18.0364 3.75923 17.7153 3.55087 17.3598 3.42297C16.8985 3.24386 16.3946 3.13621 15.556 3.09822C14.2344 3.03761 13.7857 3.03127 10.8547 3.03127H10.8556ZM10.8556 17.1026C9.36284 17.1026 7.9312 16.5096 6.87564 15.4541C5.82008 14.3985 5.22708 12.9669 5.22708 11.4741C5.22708 9.98131 5.82008 8.54967 6.87564 7.49411C7.9312 6.43855 9.36284 5.84555 10.8556 5.84555C12.3484 5.84555 13.78 6.43855 14.8356 7.49411C15.8912 8.54967 16.4842 9.98131 16.4842 11.4741C16.4842 12.9669 15.8912 14.3985 14.8356 15.4541C13.78 16.5096 12.3484 17.1026 10.8556 17.1026ZM10.8556 14.6909C11.7088 14.6909 12.527 14.352 13.1303 13.7487C13.7335 13.1455 14.0725 12.3272 14.0725 11.4741C14.0725 10.6209 13.7335 9.80272 13.1303 9.19945C12.527 8.59618 11.7088 8.25726 10.8556 8.25726C10.0025 8.25726 9.18425 8.59618 8.58098 9.19945C7.97771 9.80272 7.63879 10.6209 7.63879 11.4741C7.63879 12.3272 7.97771 13.1455 8.58098 13.7487C9.18425 14.352 10.0025 14.6909 10.8556 14.6909ZM16.4842 7.0514C16.1642 7.0514 15.8574 6.92431 15.6312 6.69808C15.405 6.47186 15.2779 6.16503 15.2779 5.84509C15.2779 5.52516 15.405 5.21833 15.6312 4.9921C15.8574 4.76588 16.1642 4.63878 16.4842 4.63878C16.8041 4.63878 17.1109 4.76588 17.3372 4.9921C17.5634 5.21833 17.6905 5.52516 17.6905 5.84509C17.6905 6.16503 17.5634 6.47186 17.3372 6.69808C17.1109 6.92431 16.8041 7.0514 16.4842 7.0514Z" fill="white"/>
</g>
<defs>
<clipPath id="clip0_39_672">
<rect width="21.7109" height="21.7109" fill="white" transform="translate(0 0.618652)"/>
</clipPath>
</defs>
</svg>
