<svg width="444" height="461" viewBox="0 0 444 461" fill="none" xmlns="http://www.w3.org/2000/svg">
<path d="M4.19356 134.102C5.42028 138.968 4.81732 130.017 7.21879 119.08C9.62027 108.144 13.7475 112.572 13.7475 112.572" stroke="#263238" stroke-width="0.742424" stroke-linecap="round" stroke-linejoin="round"/>
<path d="M3.44504 122.927L10.9821 119.839" stroke="#263238" stroke-width="0.742424" stroke-linecap="round" stroke-linejoin="round"/>
<path d="M17.2093 116.128C17.2093 116.128 12.7079 125.484 19.4965 129.414" stroke="#263238" stroke-width="0.742424" stroke-linecap="round" stroke-linejoin="round"/>
<path d="M23.6029 113.508C23.6029 113.508 31.0464 117.666 26.389 126.586" stroke="#263238" stroke-width="0.742424" stroke-linecap="round" stroke-linejoin="round"/>
<path d="M18.5088 119.288L23.842 123.176" stroke="#263238" stroke-width="0.742424" stroke-linecap="round" stroke-linejoin="round"/>
<path d="M22.688 117.573L18.5192 124.216" stroke="#263238" stroke-width="0.742424" stroke-linecap="round" stroke-linejoin="round"/>
<path d="M46.6374 217.139C47.6518 210.958 43.4632 205.125 37.2819 204.11C31.1005 203.096 25.2672 207.284 24.2527 213.466C23.2383 219.647 27.4269 225.48 33.6082 226.495C39.7896 227.509 45.6229 223.321 46.6374 217.139Z" stroke="#263238" stroke-width="0.742424" stroke-linecap="round" stroke-linejoin="round"/>
<path d="M53.3652 232.061C60.1708 230.666 64.5564 224.017 63.1606 217.212C61.7649 210.406 55.1163 206.02 48.3107 207.416C41.5051 208.812 37.1195 215.46 38.5153 222.266C39.911 229.072 46.5596 233.457 53.3652 232.061Z" stroke="#263238" stroke-width="0.742424" stroke-linecap="round" stroke-linejoin="round"/>
<path d="M45.7775 210.617L40.5587 212.478" stroke="#263238" stroke-width="0.742424" stroke-linecap="round" stroke-linejoin="round"/>
<path d="M46.5053 212.769L38.9994 215.482" stroke="#263238" stroke-width="0.742424" stroke-linecap="round" stroke-linejoin="round"/>
<path d="M46.7859 215.368L38.4068 218.591" stroke="#263238" stroke-width="0.742424" stroke-linecap="round" stroke-linejoin="round"/>
<path d="M46.1934 218.913L38.5523 222.406" stroke="#263238" stroke-width="0.742424" stroke-linecap="round" stroke-linejoin="round"/>
<path d="M44.8419 221.637L39.0409 224.049" stroke="#263238" stroke-width="0.742424" stroke-linecap="round" stroke-linejoin="round"/>
<path d="M40.9226 198.017C40.6003 196.977 36.9201 196.333 36.7642 199.057C36.6083 201.78 40.6419 199.514 41.7855 198.017C41.7855 198.017 39.7063 200.814 40.5795 201.364" stroke="#263238" stroke-width="0.742424" stroke-linecap="round" stroke-linejoin="round"/>
<path d="M61.2987 201.406L58.0344 208.195C58.0344 208.195 59.6666 204.795 61.4131 205.076C63.5651 205.461 62.1304 208.985 59.5314 207.685" stroke="#263238" stroke-width="0.742424" stroke-linecap="round" stroke-linejoin="round"/>
<path d="M416.54 312.248L421.665 317.093" stroke="#263238" stroke-width="0.742424" stroke-linecap="round" stroke-linejoin="round"/>
<path d="M421.665 310.98L417.372 317.394" stroke="#263238" stroke-width="0.742424" stroke-linecap="round" stroke-linejoin="round"/>
<path d="M426.708 312.82L431.843 310.907" stroke="#263238" stroke-width="0.742424" stroke-linecap="round" stroke-linejoin="round"/>
<path d="M434.307 305.563L437.426 308.318" stroke="#263238" stroke-width="0.742424" stroke-linecap="round" stroke-linejoin="round"/>
<path d="M439.817 302.247L435.866 315.804" stroke="#263238" stroke-width="0.742424" stroke-linecap="round" stroke-linejoin="round"/>
<path d="M200.574 236.098L214.369 226.606L232.635 227.885L233.779 251.047L220.368 260.632L203.817 259.426L200.574 236.098Z" stroke="#263238" stroke-width="0.742424" stroke-linecap="round" stroke-linejoin="round"/>
<path d="M203.817 259.426L217.176 249.81L233.779 251.047" stroke="#263238" stroke-width="0.742424" stroke-linecap="round" stroke-linejoin="round"/>
<path d="M217.176 249.81L214.369 226.606" stroke="#263238" stroke-width="0.742424" stroke-linecap="round" stroke-linejoin="round"/>
<path d="M200.574 236.098L218.798 238.208L232.635 227.885" stroke="#263238" stroke-width="0.742424" stroke-linecap="round" stroke-linejoin="round"/>
<path d="M218.798 238.208L220.368 260.632" stroke="#263238" stroke-width="0.742424" stroke-linecap="round" stroke-linejoin="round"/>
<path d="M361.587 158.284L355.474 177.277L374.499 174.709L361.587 158.284Z" stroke="#263238" stroke-width="0.742424" stroke-linecap="round" stroke-linejoin="round"/>
<path d="M361.587 158.284L364.986 175.884" stroke="#263238" stroke-width="0.742424" stroke-linecap="round" stroke-linejoin="round"/>
<path d="M364.446 173.067L366.671 172.713L367.19 175.697" stroke="#263238" stroke-width="0.742424" stroke-linecap="round" stroke-linejoin="round"/>
<path d="M122.001 332.094L131.503 336.762" stroke="#263238" stroke-width="0.742424" stroke-linecap="round" stroke-linejoin="round"/>
<path d="M128.436 328.528L125.712 338.456" stroke="#263238" stroke-width="0.742424" stroke-linecap="round" stroke-linejoin="round"/>
<path d="M129.756 323.684C129.912 323.522 130.104 323.4 130.316 323.326C130.527 323.252 130.754 323.229 130.976 323.258C131.198 323.287 131.411 323.368 131.596 323.495C131.782 323.621 131.935 323.789 132.043 323.985C133 325.482 131.129 328.622 131.129 328.622L134.944 327.166" stroke="#263238" stroke-width="0.742424" stroke-linecap="round" stroke-linejoin="round"/>
<path d="M196.603 5.07776C205.678 10.1822 195.282 22.6574 195.282 29.9346C195.282 37.2118 205.678 36.1722 210.876 38.2514C212.955 38.2514 217.114 38.2514 217 43.5325" stroke="#263238" stroke-width="0.742424" stroke-linecap="round" stroke-linejoin="round"/>
<path d="M186.487 11.7C188.067 20.2975 197.923 17.2515 203.973 19.2163C214.369 22.595 208.6 33.3237 205.502 39.8108C203.641 43.6781 201.79 49.1048 205.117 52.7746" stroke="#263238" stroke-width="0.742424" stroke-linecap="round" stroke-linejoin="round"/>
<path d="M187.818 15.0372L198.64 6.04462" stroke="#263238" stroke-width="0.742424" stroke-linecap="round" stroke-linejoin="round"/>
<path d="M192.06 17.7193L200.21 10.9619" stroke="#263238" stroke-width="0.742424" stroke-linecap="round" stroke-linejoin="round"/>
<path d="M196.852 24.5599L203.734 19.154" stroke="#263238" stroke-width="0.742424" stroke-linecap="round" stroke-linejoin="round"/>
<path d="M195.428 32.6479L208.88 22.9797" stroke="#263238" stroke-width="0.742424" stroke-linecap="round" stroke-linejoin="round"/>
<path d="M200.584 36.4217L209.961 29.5396" stroke="#263238" stroke-width="0.742424" stroke-linecap="round" stroke-linejoin="round"/>
<path d="M204.576 51.0489L216.293 41.5054" stroke="#263238" stroke-width="0.742424" stroke-linecap="round" stroke-linejoin="round"/>
<path d="M204.867 43.5429L212.508 38.1682" stroke="#263238" stroke-width="0.742424" stroke-linecap="round" stroke-linejoin="round"/>
<path d="M51.8915 337.273C63.0545 332.808 68.4844 320.139 64.0195 308.976C59.5546 297.813 46.8857 292.383 35.7227 296.848C24.5597 301.313 19.1298 313.982 23.5947 325.145C28.0596 336.308 40.7285 341.738 51.8915 337.273Z" stroke="#263238" stroke-width="0.742424" stroke-linecap="round" stroke-linejoin="round"/>
<path d="M49.281 295.999C56.8701 287.09 63.326 282.048 65.8106 283.69C69.5947 286.175 62.8062 303.141 50.6533 321.573C38.5003 340.006 25.5781 352.938 21.794 350.443C19.2989 348.811 21.3989 340.889 26.5969 330.4" stroke="#263238" stroke-width="0.742424" stroke-linecap="round" stroke-linejoin="round"/>
<path d="M22.5009 321.532C11.9178 318.486 5.16039 314.93 5.58662 312.092C6.19999 307.601 24.4865 306.561 46.3285 309.836C68.1705 313.111 85.3447 319.317 84.6897 323.788C84.2219 326.906 75.3333 328.331 62.7022 327.852" stroke="#263238" stroke-width="0.742424" stroke-linecap="round" stroke-linejoin="round"/>
<path d="M25.2766 305.761C17.2925 291.352 13.3005 280.114 16.0034 278.357C19.5588 276.06 33.3023 290.968 46.7028 311.624C60.1032 332.281 68.0769 350.952 64.5319 353.26C62.1824 354.778 55.373 348.769 47.1498 338.54" stroke="#263238" stroke-width="0.742424" stroke-linecap="round" stroke-linejoin="round"/>
<path d="M68.8774 293.109C68.4898 293.7 67.9357 294.163 67.2852 294.439C66.6347 294.716 65.9169 294.793 65.2224 294.662C64.528 294.53 63.888 294.196 63.3834 293.701C62.8787 293.206 62.532 292.573 62.387 291.881C62.242 291.19 62.3052 290.471 62.5686 289.815C62.832 289.159 63.2839 288.596 63.8671 288.197C64.4503 287.797 65.1387 287.58 65.8454 287.572C66.5521 287.563 67.2455 287.765 67.8378 288.15C68.2323 288.407 68.5723 288.739 68.8382 289.128C69.1041 289.516 69.2907 289.953 69.3873 290.414C69.4838 290.875 69.4885 291.35 69.401 291.812C69.3135 292.275 69.1356 292.716 68.8774 293.109Z" fill="#263238"/>
<path d="M57.0364 347.886C56.6487 348.477 56.0947 348.939 55.4442 349.216C54.7936 349.492 54.0758 349.569 53.3814 349.438C52.687 349.307 52.047 348.972 51.5424 348.478C51.0377 347.983 50.691 347.35 50.546 346.658C50.401 345.966 50.4642 345.247 50.7276 344.591C50.991 343.935 51.4429 343.372 52.0261 342.973C52.6093 342.574 53.2977 342.356 54.0044 342.348C54.7111 342.34 55.4044 342.541 55.9968 342.927C56.3913 343.184 56.7313 343.516 56.9972 343.904C57.2631 344.293 57.4496 344.73 57.5462 345.19C57.6428 345.651 57.6475 346.126 57.56 346.589C57.4725 347.051 57.2946 347.492 57.0364 347.886Z" fill="#263238"/>
<path d="M37.9285 310.72C37.5409 311.311 36.9868 311.774 36.3363 312.05C35.6858 312.327 34.968 312.404 34.2736 312.273C33.5791 312.141 32.9392 311.807 32.4345 311.312C31.9299 310.817 31.5832 310.184 31.4381 309.492C31.2931 308.801 31.3563 308.081 31.6197 307.426C31.8832 306.77 32.335 306.207 32.9182 305.808C33.5014 305.408 34.1899 305.191 34.8966 305.183C35.6033 305.174 36.2966 305.376 36.8889 305.761C37.6836 306.282 38.2393 307.096 38.4342 308.026C38.6291 308.955 38.4472 309.924 37.9285 310.72Z" fill="#263238"/>
<path d="M265.923 155.113H278.17L284.293 144.509L278.17 133.905H265.923L259.8 144.509L265.923 155.113Z" stroke="#263238" stroke-width="0.742424" stroke-linecap="round" stroke-linejoin="round"/>
<path d="M264.145 178.389L258.022 167.785H245.776" stroke="#263238" stroke-width="0.742424" stroke-linecap="round" stroke-linejoin="round"/>
<path d="M247.418 144.509H259.665L265.788 133.905L259.665 123.291H247.418L241.295 133.905L247.418 144.509Z" stroke="#263238" stroke-width="0.742424" stroke-linecap="round" stroke-linejoin="round"/>
<path d="M265.923 133.905H278.17L284.293 123.291L278.17 112.687H265.923L259.8 123.291L265.923 133.905Z" stroke="#263238" stroke-width="0.742424" stroke-linecap="round" stroke-linejoin="round"/>
<path d="M265.788 135.547C266.695 135.547 267.43 134.812 267.43 133.905C267.43 132.998 266.695 132.262 265.788 132.262C264.881 132.262 264.145 132.998 264.145 133.905C264.145 134.812 264.881 135.547 265.788 135.547Z" fill="#263238"/>
<path d="M240.214 113.279C241.121 113.279 241.856 112.544 241.856 111.637C241.856 110.73 241.121 109.994 240.214 109.994C239.307 109.994 238.571 110.73 238.571 111.637C238.571 112.544 239.307 113.279 240.214 113.279Z" fill="#263238"/>
<path d="M262.503 178.389C262.503 178.065 262.599 177.747 262.78 177.477C262.96 177.207 263.217 176.996 263.517 176.872C263.817 176.748 264.147 176.715 264.466 176.778C264.784 176.842 265.077 176.998 265.307 177.228C265.537 177.458 265.693 177.75 265.756 178.069C265.82 178.388 265.787 178.718 265.663 179.018C265.539 179.318 265.328 179.575 265.058 179.755C264.788 179.936 264.47 180.032 264.145 180.032C263.93 180.032 263.716 179.989 263.517 179.907C263.317 179.824 263.136 179.703 262.984 179.551C262.831 179.398 262.71 179.217 262.628 179.018C262.545 178.819 262.503 178.605 262.503 178.389Z" fill="#263238"/>
<path d="M245.776 169.428C246.683 169.428 247.418 168.693 247.418 167.785C247.418 166.878 246.683 166.143 245.776 166.143C244.868 166.143 244.133 166.878 244.133 167.785C244.133 168.693 244.868 169.428 245.776 169.428Z" fill="#263238"/>
<path d="M296.144 123.592C296.144 123.265 296.241 122.945 296.424 122.673C296.606 122.401 296.864 122.189 297.167 122.064C297.47 121.939 297.803 121.907 298.123 121.972C298.444 122.036 298.739 122.195 298.97 122.427C299.2 122.659 299.357 122.955 299.42 123.276C299.482 123.597 299.448 123.93 299.321 124.232C299.195 124.534 298.981 124.791 298.708 124.972C298.435 125.152 298.114 125.247 297.787 125.245C297.57 125.245 297.356 125.202 297.156 125.119C296.956 125.036 296.774 124.914 296.622 124.76C296.469 124.607 296.348 124.424 296.266 124.224C296.184 124.023 296.143 123.809 296.144 123.592Z" fill="#263238"/>
<path d="M257.897 169.428C258.804 169.428 259.54 168.693 259.54 167.785C259.54 166.878 258.804 166.143 257.897 166.143C256.99 166.143 256.255 166.878 256.255 167.785C256.255 168.693 256.99 169.428 257.897 169.428Z" fill="#263238"/>
<path d="M282.65 123.592C282.65 123.265 282.747 122.946 282.929 122.674C283.11 122.402 283.369 122.19 283.671 122.065C283.973 121.94 284.305 121.907 284.626 121.971C284.946 122.035 285.241 122.192 285.472 122.423C285.703 122.654 285.861 122.949 285.924 123.27C285.988 123.59 285.955 123.923 285.83 124.225C285.705 124.527 285.493 124.785 285.222 124.966C284.95 125.148 284.63 125.245 284.303 125.245C283.865 125.245 283.444 125.071 283.134 124.761C282.824 124.451 282.65 124.031 282.65 123.592Z" fill="#263238"/>
<path d="M264.145 155.123C264.143 154.795 264.239 154.474 264.42 154.201C264.6 153.927 264.858 153.714 265.161 153.588C265.463 153.461 265.797 153.428 266.118 153.491C266.44 153.554 266.735 153.712 266.967 153.944C267.199 154.176 267.357 154.471 267.42 154.793C267.483 155.114 267.45 155.448 267.323 155.75C267.197 156.053 266.984 156.311 266.71 156.491C266.437 156.672 266.116 156.768 265.788 156.766C265.353 156.763 264.937 156.589 264.629 156.282C264.322 155.974 264.148 155.558 264.145 155.123Z" fill="#263238"/>
<path d="M284.303 123.571H297.787" stroke="#263238" stroke-width="0.742424" stroke-linecap="round" stroke-linejoin="round"/>
<path d="M265.788 155.123L257.897 167.785" stroke="#263238" stroke-width="0.742424" stroke-linecap="round" stroke-linejoin="round"/>
<path d="M247.418 123.291L240.214 111.637" stroke="#263238" stroke-width="0.742424" stroke-linecap="round" stroke-linejoin="round"/>
<path d="M334.277 81.4883C335.689 76.7139 338.633 72.5369 342.655 69.6014C346.676 66.6659 351.552 65.1351 356.53 65.2451C361.507 65.3551 366.311 67.0997 370.199 70.2099C374.087 73.3201 376.844 77.623 378.044 82.4551" stroke="#263238" stroke-width="0.742424" stroke-linecap="round" stroke-linejoin="round"/>
<path d="M353.426 110.431C347.895 109.798 342.79 107.152 339.084 102.997C335.378 98.8427 333.33 93.4698 333.331 87.9026" stroke="#263238" stroke-width="0.742424" stroke-linecap="round" stroke-linejoin="round"/>
<path d="M378.699 87.9026C378.699 93.9142 376.311 99.6798 372.061 103.932C367.812 108.183 362.047 110.573 356.036 110.576" stroke="#263238" stroke-width="0.742424" stroke-linecap="round" stroke-linejoin="round"/>
<path d="M379.988 73.525C387.078 72.6206 391.829 73.1092 392.567 75.23C394.033 79.4507 378.865 88.5472 358.687 95.5541C338.508 102.561 320.97 104.807 319.494 100.575C318.714 98.3195 322.685 94.6705 329.63 90.6888" stroke="#263238" stroke-width="0.742424" stroke-linecap="round" stroke-linejoin="round"/>
<path d="M257.897 57.9934L260.07 62.3909L264.925 63.0978L261.411 66.5285L262.243 71.3627L257.897 69.0755L253.552 71.3627L254.384 66.5285L250.87 63.0978L255.725 62.3909L257.897 57.9934Z" stroke="#263238" stroke-width="0.742424" stroke-linecap="round" stroke-linejoin="round"/>
<path d="M104.411 46.2771C104.408 50.1869 102.855 53.9359 100.091 56.7015C97.3271 59.4671 93.5792 61.0235 89.6694 61.029C89.1912 61.029 88.7234 61.0082 88.266 60.9666C85.4206 60.6967 82.7149 59.6061 80.4778 57.8272C78.2407 56.0484 76.5685 53.6581 75.6645 50.9467C74.7605 48.2353 74.6635 45.3197 75.3855 42.5543C76.1075 39.7888 77.6172 37.2927 79.7313 35.3692C81.8453 33.4458 84.4726 32.1778 87.2937 31.7196C90.1148 31.2613 93.0084 31.6324 95.6225 32.7878C98.2367 33.9432 100.459 35.8331 102.019 38.2279C103.579 40.6226 104.41 43.4189 104.411 46.2771Z" stroke="#263238" stroke-width="0.742424" stroke-linecap="round" stroke-linejoin="round"/>
<path d="M102.051 48.9385C102.053 49.3913 101.921 49.8345 101.671 50.2119C101.421 50.5894 101.064 50.8842 100.646 51.0589C100.229 51.2336 99.7685 51.2804 99.3241 51.1933C98.8798 51.1062 98.4713 50.8892 98.1504 50.5698C97.8295 50.2503 97.6106 49.8428 97.5215 49.3989C97.4324 48.955 97.4771 48.4946 97.6499 48.076C97.8227 47.6575 98.1158 47.2997 98.4922 47.0479C98.8685 46.7962 99.3111 46.6617 99.7639 46.6617C100.369 46.6617 100.949 46.9013 101.377 47.3279C101.806 47.7546 102.048 48.3337 102.051 48.9385Z" stroke="#263238" stroke-width="0.742424" stroke-linecap="round" stroke-linejoin="round"/>
<path d="M81.5189 54.7394C81.5197 55.2813 81.4009 55.8167 81.1709 56.3073C80.9408 56.7979 80.6053 57.2316 80.1882 57.5776C78.2497 55.9773 76.7565 53.9041 75.8531 51.5583C76.4252 51.207 77.0843 51.0233 77.7556 51.0281C78.2473 51.0212 78.7355 51.1121 79.1918 51.2955C79.6481 51.479 80.0634 51.7512 80.4136 52.0966C80.7637 52.4419 81.0418 52.8534 81.2315 53.3071C81.4213 53.7608 81.519 54.2477 81.5189 54.7394Z" stroke="#263238" stroke-width="0.742424" stroke-linecap="round" stroke-linejoin="round"/>
<path d="M99.7639 57.0577C97.0378 59.6397 93.4242 61.0762 89.6694 61.0706C89.1912 61.0706 88.7234 61.0498 88.2659 61.0082C88.1822 60.6082 88.1404 60.2005 88.1412 59.7919C88.1418 58.4098 88.6092 57.0685 89.4676 55.9853C90.3259 54.9021 91.525 54.1406 92.8703 53.8241C94.2156 53.5076 95.6284 53.6548 96.8796 54.2417C98.1308 54.8286 99.1472 55.8209 99.7639 57.0577Z" stroke="#263238" stroke-width="0.742424" stroke-linecap="round" stroke-linejoin="round"/>
<path d="M86.0932 40.4241C87.9649 40.4241 89.4823 38.9068 89.4823 37.035C89.4823 35.1633 87.9649 33.6459 86.0932 33.6459C84.2215 33.6459 82.7041 35.1633 82.7041 37.035C82.7041 38.9068 84.2215 40.4241 86.0932 40.4241Z" stroke="#263238" stroke-width="0.742424" stroke-linecap="round" stroke-linejoin="round"/>
<path d="M89.2328 46.6617C89.2328 46.9722 89.1407 47.2757 88.9682 47.5338C88.7957 47.792 88.5505 47.9932 88.2637 48.112C87.9769 48.2308 87.6612 48.2619 87.3567 48.2013C87.0522 48.1408 86.7725 47.9913 86.553 47.7717C86.3334 47.5522 86.1839 47.2725 86.1233 46.968C86.0628 46.6635 86.0939 46.3478 86.2127 46.061C86.3315 45.7741 86.5327 45.529 86.7908 45.3565C87.049 45.184 87.3525 45.0919 87.663 45.0919C87.8691 45.0919 88.0732 45.1325 88.2637 45.2114C88.4542 45.2903 88.6272 45.4059 88.773 45.5517C88.9188 45.6975 89.0344 45.8705 89.1133 46.061C89.1922 46.2514 89.2328 46.4556 89.2328 46.6617Z" stroke="#263238" stroke-width="0.742424" stroke-linecap="round" stroke-linejoin="round"/>
<path d="M101.635 37.6692C101.223 37.8045 100.791 37.8712 100.356 37.8667C99.789 37.8667 99.2272 37.7548 98.703 37.5373C98.1789 37.3199 97.7029 37.0011 97.3021 36.5994C96.9013 36.1977 96.5838 35.7209 96.3676 35.1962C96.1514 34.6716 96.0408 34.1094 96.0421 33.542C96.0315 33.362 96.0315 33.1814 96.0421 33.0014C98.2688 34.063 100.192 35.6683 101.635 37.6692Z" stroke="#263238" stroke-width="0.742424" stroke-linecap="round" stroke-linejoin="round"/>
<path d="M440.596 217.457L442.187 213.881L439.609 212.467C439.704 211.838 439.721 211.199 439.661 210.565L442.301 209.276L440.898 205.627L438.07 206.438C437.691 205.929 437.251 205.468 436.76 205.065L437.727 202.279L434.151 200.689L432.727 203.267C432.095 203.189 431.456 203.189 430.824 203.267L429.545 200.626L425.886 202.03L426.707 204.847C426.197 205.233 425.733 205.676 425.325 206.167L422.549 205.201L421 208.725L423.578 210.149C423.483 210.779 423.466 211.418 423.526 212.052L420.875 213.33L422.279 216.99L425.106 216.168C425.488 216.678 425.928 217.142 426.416 217.551L425.46 220.327L429.036 221.917L430.45 219.339C431.08 219.434 431.719 219.452 432.352 219.391L433.642 222.042L437.291 220.639L436.48 217.811C436.986 217.429 437.447 216.989 437.852 216.501L440.596 217.457ZM429.722 215.461C428.901 215.096 428.207 214.496 427.727 213.737C427.248 212.977 427.004 212.092 427.027 211.194C427.05 210.296 427.339 209.425 427.857 208.691C428.375 207.957 429.099 207.393 429.937 207.07C430.775 206.748 431.691 206.681 432.567 206.878C433.444 207.076 434.242 207.529 434.861 208.18C435.48 208.831 435.892 209.651 436.045 210.536C436.198 211.422 436.085 212.332 435.721 213.154C435.229 214.253 434.322 215.114 433.198 215.546C432.074 215.979 430.824 215.948 429.722 215.461Z" stroke="#263238" stroke-width="0.742424" stroke-linecap="round" stroke-linejoin="round"/>
<path d="M421.593 235.806L423.755 230.952L420.262 229.018C420.386 228.164 420.407 227.298 420.324 226.44L423.921 224.693L422.04 219.734L418.204 220.847C417.691 220.151 417.094 219.523 416.426 218.975L417.736 215.191L412.839 212.998L410.916 216.491C410.062 216.368 409.197 216.344 408.338 216.418L406.591 212.831L401.622 214.744L402.734 218.57C402.044 219.092 401.416 219.692 400.863 220.358L397.089 219.09L394.927 223.945L398.42 225.878C398.296 226.732 398.275 227.598 398.358 228.456L394.761 230.203L396.673 235.162L400.51 234.06C401.025 234.753 401.622 235.381 402.287 235.931L400.977 239.705L405.843 241.867L407.766 238.364C408.619 238.492 409.485 238.516 410.344 238.437L412.091 242.023L417.06 240.121L415.948 236.285C416.638 235.766 417.266 235.17 417.819 234.507L421.593 235.806ZM406.83 233.093C405.714 232.596 404.771 231.779 404.12 230.745C403.468 229.711 403.138 228.508 403.171 227.287C403.204 226.065 403.598 224.881 404.304 223.884C405.01 222.887 405.996 222.122 407.137 221.685C408.278 221.249 409.523 221.16 410.714 221.431C411.905 221.702 412.99 222.321 413.829 223.208C414.669 224.096 415.227 225.212 415.432 226.417C415.637 227.621 415.48 228.859 414.981 229.974C414.651 230.715 414.179 231.383 413.59 231.941C413.002 232.498 412.309 232.934 411.552 233.224C410.795 233.514 409.989 233.651 409.178 233.629C408.368 233.606 407.57 233.424 406.83 233.093Z" stroke="#263238" stroke-width="0.742424" stroke-linecap="round" stroke-linejoin="round"/>
<path d="M206.084 189.721C204.659 192.42 203.051 195.018 201.27 197.497C192.034 210.339 178.462 219.404 163.062 223.018C147.661 226.631 131.474 224.549 117.489 217.156C116.044 216.397 114.63 215.586 113.279 214.734C111.927 213.881 110.607 213.008 109.339 212.072C107.8 210.96 106.324 209.775 104.91 208.538C104.819 208.47 104.736 208.393 104.66 208.309C95.4478 200.156 88.7143 189.576 85.2292 177.778C81.744 165.98 81.6478 153.439 84.9516 141.589C88.2553 129.739 94.8258 119.057 103.912 110.764C112.999 102.47 124.235 96.9002 136.337 94.6896C148.439 92.479 160.918 93.7171 172.35 98.2625C183.782 102.808 193.704 110.477 200.984 120.394C208.264 130.311 212.607 142.076 213.518 154.344C214.429 166.612 211.871 178.89 206.136 189.773L206.084 189.721Z" fill="#B80000"/>
<mask id="mask0_75_685" style="mask-type:luminance" maskUnits="userSpaceOnUse" x="82" y="93" width="132" height="132">
<path d="M206.084 189.721C204.659 192.42 203.051 195.018 201.27 197.497C192.034 210.339 178.462 219.404 163.062 223.018C147.661 226.631 131.474 224.549 117.489 217.156C116.044 216.397 114.63 215.586 113.279 214.734C111.927 213.881 110.607 213.008 109.339 212.072C107.8 210.96 106.324 209.775 104.91 208.538C104.819 208.47 104.736 208.393 104.66 208.309C95.4478 200.156 88.7143 189.576 85.2292 177.778C81.744 165.98 81.6478 153.439 84.9516 141.589C88.2553 129.739 94.8258 119.057 103.912 110.764C112.999 102.47 124.235 96.9002 136.337 94.6896C148.439 92.479 160.918 93.7171 172.35 98.2625C183.782 102.808 193.704 110.477 200.984 120.394C208.264 130.311 212.607 142.076 213.518 154.344C214.429 166.612 211.871 178.89 206.136 189.773L206.084 189.721Z" fill="white"/>
</mask>
<g mask="url(#mask0_75_685)">
<g opacity="0.6">
<path d="M206.084 189.721C204.659 192.42 203.051 195.018 201.27 197.497L200.002 196.458L197.819 195.304L195.521 194.098L195.906 191.322L195.781 188.817C195.646 186.311 197.455 188.359 198.9 187.6C200.027 186.795 200.938 185.723 201.551 184.481C201.551 184.481 202.591 181.144 202.248 179.803C201.688 178.258 201.028 176.751 200.272 175.291L196.551 180.489L193.432 180.25L190.479 178.691L190.095 174.584L188.577 173.794L187.943 171.434L179.74 169.137L178.805 167.494C177.869 165.852 174.095 165.01 174.095 165.01L175.021 162.868L176.476 160.477C177.942 158.086 179.46 162.057 179.46 162.057L181.196 162.962L184.418 160.259L185.271 156.381L190.521 156.683C190.418 156.158 190.498 155.614 190.748 155.141C190.998 154.668 191.402 154.295 191.893 154.084C193.64 153.397 192.87 149.603 192.205 148.199C191.54 146.796 189.086 147.929 189.086 147.929C189.086 147.929 186.415 143.864 186.051 142.242C185.687 140.621 191.145 141.203 193.484 139.571C195.823 137.939 195.022 134.695 193.879 134.622C192.735 134.549 196.114 127.241 202.611 129.248C204.42 129.809 205.564 129.611 206.271 128.988C211.146 138.374 213.675 148.801 213.643 159.377C213.61 169.954 211.016 180.365 206.084 189.721Z" fill="white"/>
<path d="M160.622 161.6L158.397 164.396C158.397 164.396 157.451 162.14 156.1 163.357L154.021 165.207L152.513 169.428L149.81 171.175L148.157 170.312L146.598 169.48L144.903 168.586L143.282 171.705L141.961 174.2C142.605 175.425 143.405 176.56 144.342 177.578L147.211 182.641L150.704 184.409C152.161 184.463 153.611 184.637 155.039 184.928L157.441 186.186L156.588 191.384C156.588 191.384 154.779 194.326 153.574 193.516L152.357 192.715L150.382 199.556L150.299 203.319C150.299 203.319 149.124 203.808 147.939 204.203C146.754 204.598 147.502 204.39 145.018 205.159C142.533 205.928 142.731 205.897 140.714 206.469C138.994 207.071 137.34 207.844 135.776 208.777L135.952 212.395L131.201 213.091L128.54 211.677L129.195 209.39L129.507 205.814L129.143 203.142L127.999 200.782L131.201 197.882L130.494 196.063L128.675 192.445L124.829 194.524L122.853 195.564L118.383 193.557L117.895 190.844L116.398 185.968L115.004 182.932L112.53 179.585L111.906 176.705L113.3 174.065L114.038 172.672L111.761 169.605L111.137 167.422L107.301 163.939C107.301 163.939 108.413 163.866 108.164 162.317C107.914 160.768 110.357 158.159 110.357 158.159C111.74 158.886 115.888 161.777 115.888 161.777L119.516 162.276C119.516 162.276 120.244 162.276 120.951 160.903C121.777 159.641 122.747 158.479 123.841 157.441C123.841 157.441 122.167 151.63 123.363 150.85C124.558 150.071 125.775 146.266 125.775 146.266L126.731 144.446C126.731 144.446 124.475 143.459 124.049 142.263C123.623 141.068 118.061 142.658 118.061 142.658L114.225 145.32L111.2 147.659L109.89 150.143C109.89 150.143 107.218 146.931 107.207 148.73C107.004 150.574 106.599 152.39 106.002 154.146C106.002 154.146 106.553 154.437 105.825 155.83C105.097 157.223 104.307 157.15 102.706 157.348C100.619 157.369 98.5333 157.226 96.4684 156.922C96.4684 156.922 95.4288 160.768 96.1461 161.433L96.853 162.078C96.853 162.078 95.7407 164.875 94.6387 164.292L91.9565 162.879L88.2036 164.396L84.0452 168.991L83.1199 168.804C80.5713 151.71 84.8741 134.301 95.0927 120.362C105.311 106.423 120.619 97.0816 137.688 94.369C137.928 95.4086 138.188 96.3858 138.188 96.3858L137.148 101.521L135.817 104.058L134.674 106.231L133.062 109.287L137.189 113.092L136.306 117.594L134.071 118.997L133.426 122.376L137.262 129.871L138.302 132.813C137.66 134.222 137.344 135.757 137.377 137.304C137.377 137.304 137.844 140.111 139.892 141.224C141.94 142.336 144.633 143.646 144.633 143.646L144.415 147.804L143.489 148.844L145.028 153.325C149.717 155.165 149.27 156.703 149.717 155.165L150.174 153.637L153.366 152.483L157.43 157.337C157.903 157.331 158.37 157.444 158.788 157.666C159.206 157.887 159.562 158.211 159.822 158.606C161.007 160.103 162.857 158.803 160.622 161.6Z" fill="white"/>
<path d="M105.523 197.809C105.638 199.285 103.766 201.136 103.766 201.136L105.295 201.936L105.762 206.095L104.608 208.299C96.4316 201.075 90.1947 191.918 86.4674 181.664L87.2991 177.256L90.9689 176.736C90.9689 176.736 94.254 174.553 95.7095 175.135C97.1649 175.718 98.4956 179.294 98.4956 179.294C98.4956 179.294 99.5352 184.118 99.4 184.024H99.3377H99.4208L100.918 184.814L101.344 186.717L99.2649 190.667H95.9174C95.9174 190.667 95.2521 190.314 95.1897 192.05C95.2439 192.652 95.427 193.236 95.7265 193.761C96.026 194.287 96.4351 194.742 96.9258 195.096L100.544 194.17L101.51 190.428L105.066 189.731C105.066 189.731 104.556 192.029 105.388 192.466L106.23 192.913L106.729 195.657C106.357 195.878 106.049 196.193 105.838 196.571C105.626 196.949 105.517 197.376 105.523 197.809Z" fill="white"/>
<path d="M122.718 203.693C122.396 202.799 122.261 202.019 120.047 200.855C117.832 199.691 117.967 200.107 117.094 201.073C116.718 201.571 116.205 201.947 115.617 202.156C115.029 202.364 114.394 202.397 113.788 202.248C112.333 201.926 113.092 203.568 113.092 203.568L113.445 208.007L109.339 212.062C110.607 212.998 111.92 213.885 113.279 214.723L114.152 212.041L120.972 214.037C119.527 213.611 120.379 211.636 120.379 211.636L118.924 210.866C118.924 210.866 123.041 204.566 122.718 203.693Z" fill="white"/>
<path d="M165.675 180.614L163.439 178.358L160.882 179.159L159.842 181.238L159.063 182.735L160.102 184.814L162.181 187.34L163.367 185.074C163.367 185.074 166.662 185.074 168.388 183.172C170.114 181.269 165.675 180.614 165.675 180.614Z" fill="white"/>
<path d="M159.104 170.436L163.263 172.62L163.429 171.642C163.646 170.859 164.029 170.132 164.552 169.511L161.371 166.143L159.104 170.436Z" fill="white"/>
<path d="M157.69 218.83L156.495 217.073L155.102 216.345H150.85L148.428 220.94C148.428 220.94 146.109 220.628 143.063 220.358C140.017 220.088 140.766 221.346 140.766 221.346L139.976 224.236C147.661 225.182 155.453 224.763 162.992 222.999C162.116 222.388 161.207 221.825 160.269 221.314L157.69 218.83Z" fill="white"/>
</g>
</g>
<path d="M206.084 189.721C204.659 192.42 203.051 195.018 201.27 197.497C192.034 210.339 178.462 219.404 163.062 223.018C147.661 226.631 131.474 224.549 117.489 217.156C116.044 216.397 114.63 215.586 113.279 214.734C111.927 213.881 110.607 213.008 109.339 212.072C107.8 210.96 106.324 209.775 104.91 208.538C104.819 208.47 104.736 208.393 104.66 208.309C95.4478 200.156 88.7143 189.576 85.2292 177.778C81.744 165.98 81.6478 153.439 84.9516 141.589C88.2553 129.739 94.8258 119.057 103.912 110.764C112.999 102.47 124.235 96.9002 136.337 94.6896C148.439 92.479 160.918 93.7171 172.35 98.2625C183.782 102.808 193.704 110.477 200.984 120.394C208.264 130.311 212.607 142.076 213.518 154.344C214.429 166.612 211.871 178.89 206.136 189.773L206.084 189.721Z" stroke="#263238" stroke-width="0.742424" stroke-linecap="round" stroke-linejoin="round"/>
<path d="M162.992 222.999C155.453 224.763 147.661 225.182 139.976 224.236L140.766 221.346C140.766 221.346 140.017 220.088 143.063 220.358C146.109 220.628 148.428 220.94 148.428 220.94L150.85 216.345H155.102L156.495 217.073L157.69 218.83L160.269 221.314C161.207 221.825 162.116 222.388 162.992 222.999Z" stroke="#263238" stroke-width="0.742424" stroke-linecap="round" stroke-linejoin="round"/>
<path d="M206.312 128.998C205.606 129.622 204.462 129.819 202.653 129.258C196.156 127.251 192.787 134.549 193.92 134.633C195.054 134.716 195.854 138.001 193.525 139.581C191.197 141.161 185.728 140.621 186.092 142.253C186.456 143.885 189.128 147.939 189.128 147.939C189.128 147.939 191.519 146.817 192.195 148.21C192.87 149.603 193.64 153.408 191.893 154.094C191.402 154.305 190.998 154.678 190.748 155.151C190.498 155.624 190.418 156.168 190.521 156.693L185.271 156.391L184.418 160.269L181.196 162.972L179.46 162.068C179.46 162.068 177.942 158.096 176.476 160.487L175.021 162.878L174.095 165.02C174.095 165.02 177.869 165.862 178.805 167.505L179.74 169.147L187.943 171.445L188.577 173.805L190.095 174.595L190.479 178.701L193.536 180.302L196.655 180.541L200.376 175.343C201.132 176.803 201.792 178.31 202.352 179.855C202.715 181.196 201.655 184.533 201.655 184.533C201.042 185.775 200.131 186.847 199.004 187.652C197.517 188.411 195.698 186.363 195.885 188.868L196.01 191.374L195.625 194.15L197.923 195.356L200.106 196.51L201.374 197.549" stroke="#263238" stroke-width="0.742424" stroke-linecap="round" stroke-linejoin="round"/>
<path d="M83.2031 168.804L84.1283 168.991L88.2867 164.396L92.0397 162.879L94.7218 164.292C95.8238 164.875 96.9362 162.078 96.9362 162.078L96.2293 161.434C95.512 160.768 96.5516 156.922 96.5516 156.922C98.6164 157.226 100.702 157.369 102.789 157.348C104.432 157.15 105.211 157.213 105.908 155.83C106.604 154.447 106.085 154.146 106.085 154.146C106.682 152.39 107.087 150.574 107.291 148.73C107.291 146.931 109.973 150.143 109.973 150.143L111.283 147.659L114.214 145.33L118.05 142.669C118.05 142.669 123.612 141.068 124.039 142.274C124.465 143.48 126.721 144.457 126.721 144.457L125.764 146.276C125.764 146.276 124.538 150.06 123.352 150.861C122.167 151.661 123.831 157.452 123.831 157.452C122.736 158.49 121.766 159.652 120.941 160.914C120.213 162.307 119.506 162.286 119.506 162.286L115.878 161.787C115.878 161.787 111.719 158.897 110.347 158.169C110.347 158.169 107.904 160.779 108.153 162.328C108.403 163.877 107.291 163.949 107.291 163.949L111.127 167.432L111.75 169.615L114.027 172.682L113.289 174.075L111.896 176.716L112.52 179.595L114.994 182.943L116.397 185.968L117.915 190.865L118.404 193.578L122.874 195.584L124.849 194.545L128.696 192.466L130.515 196.083L131.222 197.903L128.02 200.803L129.164 203.163L129.528 205.835L129.216 209.411L128.561 211.698L131.222 213.112L135.973 212.426L135.796 208.798C137.361 207.865 139.015 207.092 140.735 206.49C142.751 205.918 142.554 205.949 145.038 205.18C147.523 204.411 146.764 204.618 147.96 204.223C149.155 203.828 150.32 203.34 150.32 203.34L150.403 199.576L152.378 192.736L153.594 193.536C154.8 194.347 156.609 191.405 156.609 191.405L157.462 186.207L155.008 184.928C153.58 184.637 152.13 184.463 150.673 184.409L147.253 182.61L144.384 177.547C143.447 176.529 142.646 175.393 142.003 174.169L143.323 171.674L144.945 168.555L146.639 169.449L148.199 170.281L149.852 171.143L152.555 169.397L154.062 165.176L156.141 163.326C157.493 162.099 158.439 164.365 158.439 164.365L160.664 161.569C162.899 158.772 161.048 160.072 159.905 158.637C159.645 158.242 159.289 157.919 158.871 157.697C158.454 157.475 157.987 157.362 157.514 157.369L153.449 152.514L150.216 153.741L149.758 155.269C149.311 156.807 149.758 155.269 145.07 153.429L143.531 148.948L144.456 147.908L144.675 143.75C144.675 143.75 141.982 142.43 139.934 141.328C137.886 140.226 137.418 137.408 137.418 137.408C137.385 135.861 137.702 134.326 138.343 132.917L137.304 129.975L133.468 122.48L134.112 119.101L136.347 117.698L137.231 113.196L133.218 109.391L134.83 106.335L135.973 104.162L137.304 101.625L138.343 96.4898C138.343 96.4898 138.084 95.5334 137.844 94.473" stroke="#263238" stroke-width="0.742424" stroke-linecap="round" stroke-linejoin="round"/>
<path d="M104.962 208.527C104.881 208.435 104.791 208.351 104.692 208.278L105.846 206.074L105.378 201.915L103.85 201.115C103.85 201.115 105.721 199.264 105.606 197.788C105.586 197.348 105.685 196.91 105.891 196.521C106.098 196.131 106.405 195.804 106.781 195.574L106.282 192.829L105.44 192.382C104.608 191.946 105.118 189.648 105.118 189.648L101.562 190.345L100.596 194.087L96.9778 195.013C96.4871 194.659 96.078 194.204 95.7785 193.678C95.479 193.153 95.2959 192.569 95.2417 191.967C95.304 190.23 95.9694 190.584 95.9694 190.584H99.3169L101.396 186.633L100.97 184.731L99.4728 183.941" stroke="#263238" stroke-width="0.742424" stroke-linecap="round" stroke-linejoin="round"/>
<path d="M99.3793 183.941C99.5456 184.034 98.4748 179.211 98.4748 179.211C98.4748 179.211 97.1441 175.686 95.6887 175.052C94.2333 174.418 90.9481 176.653 90.9481 176.653L87.2783 177.173L86.4467 181.581" stroke="#263238" stroke-width="0.742424" stroke-linecap="round" stroke-linejoin="round"/>
<path d="M114.152 212.041L113.279 214.723C111.893 213.878 110.579 212.991 109.339 212.062L113.445 208.007L113.092 203.568C113.092 203.568 112.333 201.926 113.788 202.248C114.394 202.397 115.029 202.364 115.617 202.156C116.205 201.947 116.718 201.571 117.094 201.073C117.947 200.107 117.843 199.691 120.047 200.855C122.25 202.019 122.396 202.799 122.718 203.693C123.041 204.587 118.924 210.898 118.924 210.898L120.379 211.667C120.379 211.667 119.527 213.642 120.972 214.068L114.152 212.041Z" stroke="#263238" stroke-width="0.742424" stroke-linecap="round" stroke-linejoin="round"/>
<path d="M160.882 179.159L163.439 178.358L165.674 180.614C165.674 180.614 170.093 181.186 168.367 183.109C166.641 185.032 163.346 185.012 163.346 185.012L162.14 187.278L160.061 184.752L159.021 182.673L159.801 181.175L160.882 179.159Z" stroke="#263238" stroke-width="0.742424" stroke-linecap="round" stroke-linejoin="round"/>
<path d="M164.552 169.511C164.029 170.133 163.646 170.859 163.429 171.642L163.263 172.62L159.104 170.436L161.371 166.143L164.552 169.511Z" stroke="#263238" stroke-width="0.742424" stroke-linecap="round" stroke-linejoin="round"/>
<path d="M390.155 414.732C384.583 419.368 341.658 448.831 280.405 444.08C277.109 416.198 264.54 301.655 278.835 283.69C278.835 283.69 313.516 267.15 345.463 274.095C377.41 281.039 389.843 287.693 392.12 293.452C393.846 297.808 391.382 378.918 390.155 414.732Z" fill="#263238"/>
<path d="M344.402 286.331C326.001 302.268 302.299 298.9 302.818 286.664C302.902 284.751 304.95 282.381 304.95 282.381L304.232 281.279L301.113 276.569C298.837 273.045 295.988 268.616 294.003 265.393C292.339 262.649 333.809 237.137 333.809 251.806C333.809 272.473 343.955 276.361 343.955 276.361C347.781 277.9 351.347 280.333 344.402 286.331Z" fill="white" stroke="#263238" stroke-width="0.742424" stroke-linecap="round" stroke-linejoin="round"/>
<path d="M356.036 317.893C356.036 317.893 352.324 330.618 354.081 334.267" stroke="white" stroke-width="0.742424" stroke-linecap="round" stroke-linejoin="round"/>
<path d="M351.7 280.946C351.7 293.223 315.075 305.252 304.347 292.932" stroke="white" stroke-width="0.742424" stroke-linecap="round" stroke-linejoin="round"/>
<path d="M321.573 266.776C321.573 266.776 319.119 276.029 307.684 283.254C307.138 282.317 306.258 281.623 305.22 281.31C304.876 281.254 304.525 281.254 304.18 281.31L301.061 276.6C306.977 272.338 321.573 266.776 321.573 266.776Z" fill="#263238"/>
<path d="M326.708 255.403C326.708 255.403 326.584 264.531 324.629 266.391C310.127 280.301 295.947 281.403 293.608 277.733C277.858 253.033 281.579 246.546 279.978 242.314C277.14 234.892 273.658 222.77 275.196 215.43C278.627 199.036 309.503 186.322 325.762 202.81C333.559 210.7 336.023 227.822 334.381 242.086" fill="white"/>
<path d="M326.708 255.403C326.708 255.403 326.584 264.531 324.629 266.391C310.127 280.301 295.947 281.403 293.608 277.733C277.858 253.033 281.579 246.546 279.978 242.314C277.14 234.892 273.658 222.77 275.196 215.43C278.627 199.036 309.503 186.322 325.762 202.81C333.559 210.7 336.023 227.822 334.381 242.086" stroke="#263238" stroke-width="0.742424" stroke-linecap="round" stroke-linejoin="round"/>
<path d="M281.964 234.684C281.964 234.684 277.629 232.74 276.693 235.058" stroke="#263238" stroke-width="0.742424" stroke-linecap="round" stroke-linejoin="round"/>
<path d="M292.474 234.829C292.474 234.829 301.488 231.056 305.542 235.64" stroke="#263238" stroke-width="0.742424" stroke-linecap="round" stroke-linejoin="round"/>
<path d="M302.486 241.223C302.631 242.574 301.976 243.749 301.009 243.863C300.043 243.978 299.149 242.948 299.003 241.597C298.858 240.246 299.512 239.06 300.479 238.956C301.446 238.852 302.299 239.871 302.486 241.223Z" fill="#263238"/>
<path d="M284.813 241.628C284.968 242.98 284.303 244.165 283.336 244.269C282.369 244.373 281.475 243.364 281.33 242.013C281.184 240.661 281.839 239.476 282.806 239.372C283.773 239.268 284.646 240.277 284.813 241.628Z" fill="#263238"/>
<path d="M285.249 238.073C286.507 240.1 285.821 243.562 284.158 248.313C282.494 253.064 283.96 254.779 290.343 255.257" fill="white"/>
<path d="M285.249 238.073C286.507 240.1 285.821 243.562 284.158 248.313C282.494 253.064 283.96 254.779 290.343 255.257" stroke="#263238" stroke-width="0.742424" stroke-linecap="round" stroke-linejoin="round"/>
<path d="M290.343 263.481C290.343 263.481 298.66 262.722 302.465 260.632" stroke="#263238" stroke-width="0.742424" stroke-linecap="round" stroke-linejoin="round"/>
<path d="M343.03 216.345C343.03 210.17 336.938 197.497 326.251 196.073C320.107 189.648 311.354 187.288 300.729 189.731C276.173 195.366 268.699 219.609 267.628 223.622C267.524 223.997 267.472 224.204 267.472 224.204L274.042 222.541L271.215 228.061L274.656 230.338L273.866 231.211L277.858 235.058L276.61 228.03C277.379 223.498 282.598 217.156 282.598 217.156C280.694 219.625 279.506 222.571 279.168 225.67C281.247 220.275 293.722 215.274 293.722 215.274C289.678 218.559 287.484 224.984 287.484 224.984C291.331 220.244 300.344 217.177 306.114 215.545C308.058 220.233 311.146 225.13 315.554 227.843C319.712 230.401 319.566 235.682 319.566 235.682C324.041 238.792 327.337 243.318 328.923 248.531L333.954 255.413C333.954 255.413 343.03 244.279 343.03 216.345Z" fill="#263238"/>
<path d="M321.854 237.449C320.169 233.842 326.282 224.069 330.617 225.275C333.05 225.962 336.231 230.401 336.855 235.058C337.479 239.715 334.183 248.573 330.669 250.496C328.434 251.744 326.594 248.344 326.594 248.344" fill="white"/>
<path d="M321.854 237.449C320.169 233.842 326.282 224.069 330.617 225.275C333.05 225.962 336.231 230.401 336.855 235.058C337.479 239.715 334.183 248.573 330.669 250.496C328.434 251.744 326.594 248.344 326.594 248.344" stroke="#263238" stroke-width="0.742424" stroke-linecap="round" stroke-linejoin="round"/>
<path d="M56.631 413.9L174.095 386.434L419.108 414.732L356.025 457.875L56.631 413.9Z" fill="white"/>
<path d="M56.631 413.9L174.095 386.434L419.108 414.732" fill="white"/>
<path d="M56.631 413.9L174.095 386.434L419.108 414.732" stroke="#263238" stroke-width="0.742424" stroke-linecap="round" stroke-linejoin="round"/>
<path d="M158.283 419.41L205.834 398.389L265.954 401.498L239.216 424.359L158.283 419.41Z" fill="white" stroke="#263238" stroke-width="0.742424" stroke-linecap="round" stroke-linejoin="round"/>
<path d="M281.153 282.651C265.902 288.888 262.617 302.913 236.7 358.334C236.7 358.334 225.192 360.693 219.027 374.676C212.862 388.659 223.185 399.699 235.068 399.325C235.068 399.325 239.84 403.483 249.622 403.057C259.405 402.631 302.642 336.471 302.642 336.471L281.153 282.651Z" fill="#263238"/>
<path d="M241.243 361.587C248.063 367.659 251.982 376.568 249.903 386.444" stroke="white" stroke-width="0.742424" stroke-linecap="round" stroke-linejoin="round"/>
<path d="M247.824 364.509C247.824 364.509 256.203 366.339 257.502 377.067" stroke="white" stroke-width="0.742424" stroke-linecap="round" stroke-linejoin="round"/>
<path d="M272.337 333.113C268.378 323.345 267.01 312.72 268.366 302.268" stroke="white" stroke-width="0.742424" stroke-linecap="round" stroke-linejoin="round"/>
<path d="M271.152 318.974C270.518 323.341 275.03 346.586 274.999 371.027" stroke="white" stroke-width="0.742424" stroke-linecap="round" stroke-linejoin="round"/>
<path d="M385.155 287.246C404.231 296.831 406.498 326.324 388.502 361.588C375.788 386.476 358.239 423.225 347.137 425.689C336.034 428.153 325.201 421.24 325.201 421.24C325.201 421.24 315.845 420.803 313.017 414.15C305.282 395.967 324.941 372.992 332.634 378.491C332.634 378.491 357.335 324.775 361.836 321.386" fill="#263238"/>
<path d="M311.25 403.099C308.723 390.551 328.476 375.747 332.634 378.492C332.634 378.492 347.303 379.313 349.496 389.459" stroke="white" stroke-width="0.742424" stroke-linecap="round" stroke-linejoin="round"/>
<path d="M364.986 405.77C373.574 390.623 388.502 361.587 388.502 361.587" stroke="white" stroke-width="0.742424" stroke-linecap="round" stroke-linejoin="round"/>
<path d="M332.634 378.491C332.634 378.491 342.916 372.337 350.598 378.159" stroke="white" stroke-width="0.742424" stroke-linecap="round" stroke-linejoin="round"/>
<path d="M336.148 371.017C336.148 371.017 341.824 358.541 347.584 347.106C353.343 335.67 366.525 318.735 372.004 317.914" stroke="white" stroke-width="0.742424" stroke-linecap="round" stroke-linejoin="round"/>
<path d="M227.801 393.441C226.566 393.381 225.36 393.051 224.266 392.474C206.593 383.253 192.85 368.012 184.574 357.076C181.357 352.896 178.396 348.525 175.707 343.987L179.948 325.815C179.948 325.815 183.94 336.211 199.981 346.43C216.022 356.649 235.078 360.018 241.243 370.341C246.701 379.334 237.085 393.888 227.801 393.441Z" fill="white"/>
<mask id="mask1_75_685" style="mask-type:luminance" maskUnits="userSpaceOnUse" x="175" y="325" width="68" height="69">
<path d="M227.801 393.441C226.566 393.381 225.36 393.051 224.266 392.474C206.593 383.253 192.85 368.012 184.574 357.076C181.357 352.896 178.396 348.525 175.707 343.987L179.948 325.815C179.948 325.815 183.94 336.211 199.981 346.43C216.022 356.649 235.078 360.018 241.243 370.341C246.701 379.334 237.085 393.888 227.801 393.441Z" fill="white"/>
</mask>
<g mask="url(#mask1_75_685)">
<path opacity="0.4" d="M227.801 393.441C227.604 392.126 227.255 390.839 226.761 389.605C223.05 380.311 200.595 361.837 200.595 361.837C195.251 361.671 189.377 359.446 184.595 357.076C181.371 352.896 178.402 348.525 175.707 343.987L179.948 325.815C179.948 325.815 183.94 336.211 199.981 346.43C216.022 356.649 235.078 360.018 241.243 370.341C246.701 379.334 237.085 393.888 227.801 393.441Z" fill="#B80000"/>
</g>
<path d="M227.801 393.441C226.566 393.381 225.36 393.051 224.266 392.474C206.593 383.253 192.85 368.012 184.574 357.076C181.357 352.896 178.396 348.525 175.707 343.987L179.948 325.815C179.948 325.815 183.94 336.211 199.981 346.43C216.022 356.649 235.078 360.018 241.243 370.341C246.701 379.334 237.085 393.888 227.801 393.441Z" stroke="#263238" stroke-width="0.742424" stroke-linecap="round" stroke-linejoin="round"/>
<path d="M187.776 342.885C187.776 342.885 185.583 352.574 179.803 350.401C176.684 349.227 170.675 339.912 169.542 335.213L187.776 342.885Z" fill="white" stroke="#263238" stroke-width="0.742424" stroke-linecap="round" stroke-linejoin="round"/>
<path d="M162.296 283.223L167.016 280.79C167.016 280.79 180.354 280.904 188.629 287.63C196.145 293.743 199.96 303.318 199.96 303.318C199.96 303.318 229.163 287.194 258.989 296.446L271.152 364.239L215.232 367.898L180.333 334.745L162.296 283.223Z" fill="white" stroke="#263238" stroke-width="0.742424" stroke-linecap="round" stroke-linejoin="round"/>
<path d="M274.999 366.952C274.999 366.952 268.439 366.754 259.665 367.045C246.399 367.461 228.071 368.958 219.692 373.834L219.297 373.699L211.625 371.017L211.469 370.788C210.055 368.709 198.651 352.335 182.36 345.671L159.323 281.299C159.323 281.299 183.233 282.339 196.301 303.942L202.861 306.312C202.861 306.312 241.898 294.752 263.75 298.91L274.999 366.952Z" fill="#B80000"/>
<mask id="mask2_75_685" style="mask-type:luminance" maskUnits="userSpaceOnUse" x="159" y="281" width="116" height="93">
<path d="M274.999 366.952C274.999 366.952 268.439 366.754 259.665 367.045C246.399 367.461 228.071 368.958 219.692 373.834L219.297 373.699L211.625 371.017L211.469 370.788C210.055 368.709 198.651 352.335 182.36 345.671L159.323 281.299C159.323 281.299 183.233 282.339 196.301 303.942L202.861 306.312C202.861 306.312 241.898 294.752 263.75 298.91L274.999 366.952Z" fill="white"/>
</mask>
<g mask="url(#mask2_75_685)">
<path opacity="0.3" d="M211.469 370.798C210.055 368.719 198.651 352.345 182.36 345.681L159.323 281.309C159.323 281.309 183.233 282.349 196.301 303.952L211.469 370.798Z" fill="black" fill-opacity="0.7"/>
<path opacity="0.3" d="M259.665 367.045C246.399 367.461 228.071 368.958 219.692 373.834L219.297 373.699L203.973 308.641C203.973 308.641 216.511 305.823 220.368 307.248C220.357 307.268 245.848 326.075 259.665 367.045Z" fill="black" fill-opacity="0.7"/>
</g>
<path d="M274.999 366.952C274.999 366.952 268.439 366.754 259.665 367.045C246.399 367.461 228.071 368.958 219.692 373.834L219.297 373.699L211.625 371.017L211.469 370.788C210.055 368.709 198.651 352.335 182.36 345.671L159.323 281.299C159.323 281.299 183.233 282.339 196.301 303.942L202.861 306.312C202.861 306.312 241.898 294.752 263.75 298.91L274.999 366.952Z" stroke="#263238" stroke-width="0.742424" stroke-linecap="round" stroke-linejoin="round"/>
<path d="M202.882 306.322L217.925 368.73" stroke="#263238" stroke-width="0.742424" stroke-linecap="round" stroke-linejoin="round"/>
<path d="M211.625 371.027L197.008 308.661" stroke="#263238" stroke-width="0.742424" stroke-linecap="round" stroke-linejoin="round"/>
<path d="M174.49 344.039C171.153 343.114 164.427 323.06 167.504 314.421C167.504 314.421 171.164 308.069 172.702 307.632C175.031 306.957 184.429 307.154 183.971 308.734C182.932 312.394 175.717 312.331 175.717 312.331L173.378 316.615L173.471 318.974C173.471 318.974 176.871 316.5 178.118 316.573C178.763 316.573 182.09 318.236 184.73 319.629C186.986 320.825 188.369 321.48 187.849 322.561C186.175 326.158 179.054 323.601 179.054 323.601L176.372 327.645C176.372 327.645 178.961 328.092 180.094 328.216C181.227 328.341 190.635 334.61 190.355 335.39C189.242 338.446 180.322 335.14 180.322 335.14L178.742 336.46C178.742 336.46 185.313 338.155 186.019 338.405C187.059 338.789 191.061 341.866 190.999 342.22C190.521 344.923 185.001 342.937 185.001 342.937L180.166 342.74C179.43 343.389 178.544 343.846 177.588 344.07" fill="white"/>
<path d="M174.49 344.039C171.153 343.114 164.427 323.06 167.504 314.421C167.504 314.421 171.164 308.069 172.702 307.632C175.031 306.957 184.429 307.154 183.971 308.734C182.932 312.394 175.717 312.331 175.717 312.331L173.378 316.615L173.471 318.974C173.471 318.974 176.871 316.5 178.118 316.573C178.763 316.573 182.09 318.236 184.73 319.629C186.986 320.825 188.369 321.48 187.849 322.561C186.175 326.158 179.054 323.601 179.054 323.601L176.372 327.645C176.372 327.645 178.961 328.092 180.094 328.216C181.227 328.341 190.635 334.61 190.355 335.39C189.242 338.446 180.322 335.14 180.322 335.14L178.742 336.46C178.742 336.46 185.313 338.155 186.019 338.405C187.059 338.789 191.061 341.866 190.999 342.22C190.521 344.923 185.001 342.937 185.001 342.937L180.166 342.74C179.43 343.389 178.544 343.846 177.588 344.07" stroke="#263238" stroke-width="0.742424" stroke-linecap="round" stroke-linejoin="round"/>
<path d="M173.43 318.974C173.43 318.974 170.311 321.594 169.511 322.353C168.71 323.112 168.908 325.524 168.908 325.524" stroke="#263238" stroke-width="0.742424" stroke-linecap="round" stroke-linejoin="round"/>
<path d="M171.174 330.847C171.174 333.487 172.941 335.088 173.752 335.941C174.563 336.793 172.453 339.112 174.792 340.775" stroke="#263238" stroke-width="0.742424" stroke-linecap="round" stroke-linejoin="round"/>
<path d="M325.159 414.545C318.558 416.343 311.385 404.741 302.631 392.079C296.851 383.762 290.385 374.894 282.952 369.208C282.359 368.761 281.756 368.324 281.153 367.908L285.499 346.077C294.522 350.807 300.115 358.386 309.482 366.172C324.556 378.72 337.915 386.423 341.616 391.975C345.317 397.526 336.47 411.457 325.159 414.545Z" fill="white"/>
<mask id="mask3_75_685" style="mask-type:luminance" maskUnits="userSpaceOnUse" x="281" y="346" width="62" height="69">
<path d="M325.159 414.545C318.558 416.343 311.385 404.741 302.631 392.079C296.851 383.762 290.385 374.894 282.952 369.208C282.359 368.761 281.756 368.324 281.153 367.908L285.499 346.077C294.522 350.807 300.115 358.386 309.482 366.172C324.556 378.72 337.915 386.423 341.616 391.975C345.317 397.526 336.47 411.457 325.159 414.545Z" fill="white"/>
</mask>
<g mask="url(#mask3_75_685)">
<path opacity="0.4" d="M302.631 392.069C296.851 383.752 290.385 374.884 282.952 369.197C283.931 369.247 284.911 369.099 285.831 368.761C285.831 368.761 297.579 378.294 302.631 392.069Z" fill="#B80000"/>
</g>
<path d="M325.159 414.545C318.558 416.343 311.385 404.741 302.631 392.079C296.851 383.762 290.385 374.894 282.952 369.208C282.359 368.761 281.756 368.324 281.153 367.908L285.499 346.077C294.522 350.807 300.115 358.386 309.482 366.172C324.556 378.72 337.915 386.423 341.616 391.975C345.317 397.526 336.47 411.457 325.159 414.545Z" stroke="#263238" stroke-width="0.742424" stroke-linecap="round" stroke-linejoin="round"/>
<path d="M287.931 367.045C287.48 367.853 286.736 368.456 285.852 368.73C285.617 368.822 285.378 368.902 285.135 368.969H284.937C277.962 370.788 262.264 367.004 262.264 367.004C262.264 367.004 251.982 362.118 251.358 360.964C250.924 360.049 250.538 359.113 250.204 358.157L249.924 357.336C249.924 357.336 246.223 355.256 245.765 353.635C245.308 352.013 244.528 351.555 246.805 351.264C249.082 350.973 261.359 351.264 261.359 351.264L248 345.817C248 345.817 239.153 341.357 238.332 339.787C237.511 338.217 236.482 337.178 241.004 337.802C245.526 338.425 255.402 341.295 255.402 341.295L263.189 342.948L255.454 339.652C255.454 339.652 240.235 337.812 243.114 333.082H251.753C256.647 333.298 261.515 333.917 266.308 334.932C268.824 335.702 285.457 346.035 285.457 346.035" fill="white"/>
<mask id="mask4_75_685" style="mask-type:luminance" maskUnits="userSpaceOnUse" x="237" y="333" width="51" height="37">
<path d="M287.931 367.045C287.48 367.853 286.736 368.456 285.852 368.73C285.617 368.822 285.378 368.902 285.135 368.969H284.937C277.962 370.788 262.264 367.004 262.264 367.004C262.264 367.004 251.982 362.118 251.358 360.964C250.924 360.049 250.538 359.113 250.204 358.157L249.924 357.336C249.924 357.336 246.223 355.256 245.765 353.635C245.308 352.013 244.528 351.555 246.805 351.264C249.082 350.973 261.359 351.264 261.359 351.264L248 345.817C248 345.817 239.153 341.357 238.332 339.787C237.511 338.217 236.482 337.178 241.004 337.802C245.526 338.425 255.402 341.295 255.402 341.295L263.189 342.948L255.454 339.652C255.454 339.652 240.235 337.812 243.114 333.082H251.753C256.647 333.298 261.515 333.917 266.308 334.932C268.824 335.702 285.457 346.035 285.457 346.035" fill="white"/>
</mask>
<g mask="url(#mask4_75_685)">
<path opacity="0.4" d="M284.917 369.01C277.941 370.83 262.243 367.045 262.243 367.045C262.243 367.045 251.961 362.159 251.337 361.005C250.903 360.091 250.518 359.154 250.184 358.198L262.804 359.581C262.363 360.376 262.131 361.271 262.131 362.18C262.131 363.09 262.363 363.984 262.804 364.779C264.208 367.305 280.197 369.863 284.917 369.01Z" fill="#B80000"/>
</g>
<path d="M287.931 367.045C287.48 367.853 286.736 368.456 285.852 368.73C285.617 368.822 285.378 368.902 285.135 368.969H284.937C277.962 370.788 262.264 367.004 262.264 367.004C262.264 367.004 251.982 362.118 251.358 360.964C250.924 360.049 250.538 359.113 250.204 358.157L249.924 357.336C249.924 357.336 246.223 355.256 245.765 353.635C245.308 352.013 244.528 351.555 246.805 351.264C249.082 350.973 261.359 351.264 261.359 351.264L248 345.817C248 345.817 239.153 341.357 238.332 339.787C237.511 338.217 236.482 337.178 241.004 337.802C245.526 338.425 255.402 341.295 255.402 341.295L263.189 342.948L255.454 339.652C255.454 339.652 240.235 337.812 243.114 333.082H251.753C256.647 333.298 261.515 333.917 266.308 334.932C268.824 335.702 285.457 346.035 285.457 346.035" stroke="#263238" stroke-width="0.742424" stroke-linecap="round" stroke-linejoin="round"/>
<path d="M249.903 357.377L265.091 359.612" stroke="#263238" stroke-width="0.742424" stroke-linecap="round" stroke-linejoin="round"/>
<path d="M98.4956 403.889L136.566 415.324L206.219 399.429C206.219 399.429 163.678 387.349 163.283 387.65C162.888 387.952 98.4956 403.889 98.4956 403.889Z" fill="#B80000"/>
<mask id="mask5_75_685" style="mask-type:luminance" maskUnits="userSpaceOnUse" x="98" y="387" width="109" height="29">
<path d="M98.4956 403.889L136.566 415.324L206.219 399.429C206.219 399.429 163.678 387.349 163.283 387.65C162.888 387.952 98.4956 403.889 98.4956 403.889Z" fill="white"/>
</mask>
<g mask="url(#mask5_75_685)">
<path opacity="0.3" d="M98.4956 403.889L136.566 415.324L206.219 399.429C206.219 399.429 163.678 387.349 163.283 387.65C162.888 387.952 98.4956 403.889 98.4956 403.889Z" fill="black" fill-opacity="0.7"/>
</g>
<path d="M98.4956 403.889L136.566 415.324L206.219 399.429C206.219 399.429 163.678 387.349 163.283 387.65C162.888 387.952 98.4956 403.889 98.4956 403.889Z" stroke="#263238" stroke-width="0.742424" stroke-linecap="round" stroke-linejoin="round"/>
<path d="M99.0466 390.478C96.3748 390.665 95.7095 400.292 98.4956 403.889L159.998 391.123L164.926 379.458L99.0466 390.478Z" fill="#B80000"/>
<mask id="mask6_75_685" style="mask-type:luminance" maskUnits="userSpaceOnUse" x="96" y="379" width="69" height="25">
<path d="M99.0466 390.478C96.3748 390.665 95.7095 400.292 98.4956 403.889L159.998 391.123L164.926 379.458L99.0466 390.478Z" fill="white"/>
</mask>
<g mask="url(#mask6_75_685)">
<path opacity="0.3" d="M99.0466 390.478C96.3748 390.665 95.7095 400.292 98.4956 403.889L159.998 391.123L164.926 379.458L99.0466 390.478Z" fill="black" fill-opacity="0.7"/>
</g>
<path d="M99.0466 390.478C96.3748 390.665 95.7095 400.292 98.4956 403.889L159.998 391.123L164.926 379.458L99.0466 390.478Z" stroke="#263238" stroke-width="0.742424" stroke-linecap="round" stroke-linejoin="round"/>
<path d="M203.235 390.343C203.235 390.343 202.32 395.406 202.913 398.524L136.493 413.557L101.479 403.244C101.479 403.244 97.8406 396.809 101.011 391.809L164.988 380.945L203.235 390.343Z" fill="white" stroke="#263238" stroke-width="0.742424" stroke-linecap="round" stroke-linejoin="round"/>
<path d="M99.0466 390.478L164.926 379.458L205.834 389.823L137.034 403.535L99.0466 390.478Z" fill="#B80000" stroke="#263238" stroke-width="0.742424" stroke-linecap="round" stroke-linejoin="round"/>
<path d="M101.386 396.632L136.223 407.008L193.245 395.53" stroke="#263238" stroke-width="0.742424" stroke-linecap="round" stroke-linejoin="round"/>
<path d="M202.726 396.591L141.41 409.669" stroke="#263238" stroke-width="0.742424" stroke-linecap="round" stroke-linejoin="round"/>
<path d="M102.207 400.718C102.737 400.77 128.467 408.692 128.467 408.692" stroke="#263238" stroke-width="0.742424" stroke-linecap="round" stroke-linejoin="round"/>
<path d="M197.715 394.189L202.591 393.399" stroke="#263238" stroke-width="0.742424" stroke-linecap="round" stroke-linejoin="round"/>
<path d="M135.089 410.615L132.501 410.033" stroke="#263238" stroke-width="0.742424" stroke-linecap="round" stroke-linejoin="round"/>
<path d="M101.011 391.809C102.375 393.379 103.164 395.367 103.249 397.445C103.334 399.523 102.71 401.568 101.479 403.244C100.34 401.572 99.6927 399.615 99.61 397.593C99.5273 395.572 100.013 393.568 101.011 391.809Z" fill="#263238"/>
<mask id="mask7_75_685" style="mask-type:luminance" maskUnits="userSpaceOnUse" x="99" y="391" width="5" height="13">
<path d="M101.011 391.809C102.375 393.379 103.164 395.367 103.249 397.445C103.334 399.523 102.71 401.568 101.479 403.244C100.34 401.572 99.6927 399.615 99.61 397.593C99.5273 395.572 100.013 393.568 101.011 391.809Z" fill="white"/>
</mask>
<g mask="url(#mask7_75_685)">
<path opacity="0.3" d="M101.011 391.809C102.375 393.379 103.164 395.367 103.249 397.445C103.334 399.523 102.71 401.568 101.479 403.244C100.34 401.572 99.6927 399.615 99.61 397.593C99.5273 395.572 100.013 393.568 101.011 391.809Z" fill="white" fill-opacity="0.7"/>
</g>
<path d="M101.011 391.809C102.375 393.379 103.164 395.367 103.249 397.445C103.334 399.523 102.71 401.568 101.479 403.244C100.34 401.572 99.6927 399.615 99.61 397.593C99.5273 395.572 100.013 393.568 101.011 391.809Z" stroke="#263238" stroke-width="0.742424" stroke-linecap="round" stroke-linejoin="round"/>
<path d="M243.301 407.008L309.784 409.731L303.307 432.613L221.522 429.494L243.301 407.008Z" fill="white"/>
<mask id="mask8_75_685" style="mask-type:luminance" maskUnits="userSpaceOnUse" x="221" y="407" width="89" height="26">
<path d="M243.301 407.008L309.784 409.731L303.307 432.613L221.522 429.494L243.301 407.008Z" fill="white"/>
</mask>
<g mask="url(#mask8_75_685)">
<path opacity="0.4" d="M243.301 407.008L309.784 409.731L303.307 432.613L221.522 429.494L243.301 407.008Z" fill="#B80000"/>
</g>
<path d="M243.301 407.008L309.784 409.731L303.307 432.613L221.522 429.494L243.301 407.008Z" stroke="#263238" stroke-width="0.742424" stroke-linecap="round" stroke-linejoin="round"/>
</svg>
