<svg width="56" height="56" viewBox="0 0 56 56" fill="none" xmlns="http://www.w3.org/2000/svg">
<rect width="56" height="56" rx="13" fill="#B80000"/>
<rect x="1.5" y="1.5" width="53" height="53" rx="11.5" stroke="#F2F2F2" stroke-opacity="0.2" stroke-width="3"/>
<g filter="url(#filter0_d_75_741)">
<circle cx="28" cy="28" r="16" fill="#D74C4C"/>
</g>
<path d="M28 26.9C27.39 26.9 26.9 27.39 26.9 28C26.9 28.61 27.39 29.1 28 29.1C28.61 29.1 29.1 28.61 29.1 28C29.1 27.39 28.61 26.9 28 26.9ZM28 18C22.48 18 18 22.48 18 28C18 33.52 22.48 38 28 38C33.52 38 38 33.52 38 28C38 22.48 33.52 18 28 18ZM30.19 30.19L22 34L25.81 25.81L34 22L30.19 30.19Z" fill="#FBB901"/>
<defs>
<filter id="filter0_d_75_741" x="3.11111" y="3.11111" width="49.7778" height="49.7778" filterUnits="userSpaceOnUse" color-interpolation-filters="sRGB">
<feFlood flood-opacity="0" result="BackgroundImageFix"/>
<feColorMatrix in="SourceAlpha" type="matrix" values="0 0 0 0 0 0 0 0 0 0 0 0 0 0 0 0 0 0 127 0" result="hardAlpha"/>
<feOffset/>
<feGaussianBlur stdDeviation="4.44444"/>
<feComposite in2="hardAlpha" operator="out"/>
<feColorMatrix type="matrix" values="0 0 0 0 0 0 0 0 0 0 0 0 0 0 0 0 0 0 0.25 0"/>
<feBlend mode="normal" in2="BackgroundImageFix" result="effect1_dropShadow_75_741"/>
<feBlend mode="normal" in="SourceGraphic" in2="effect1_dropShadow_75_741" result="shape"/>
</filter>
</defs>
</svg>
