<svg width="27" height="28" viewBox="0 0 27 28" fill="none" xmlns="http://www.w3.org/2000/svg">
<path d="M24.32 7.0876C23.4859 7.45662 22.6013 7.69904 21.6955 7.80685C22.6499 7.23531 23.3639 6.33636 23.7046 5.27745C22.8083 5.81088 21.8256 6.18471 20.8025 6.38693C20.1145 5.65083 19.2026 5.16264 18.2086 4.99826C17.2145 4.83389 16.194 5.00253 15.3057 5.47798C14.4173 5.95343 13.711 6.70904 13.2964 7.62735C12.8818 8.54566 12.7823 9.57521 13.0132 10.5559C11.1953 10.465 9.41691 9.99271 7.79343 9.16977C6.16996 8.34683 4.73772 7.19162 3.58972 5.77918C3.18341 6.47706 2.96989 7.27039 2.97103 8.07793C2.97103 9.6629 3.77882 11.0631 5.00417 11.8829C4.27838 11.8601 3.56857 11.6641 2.93387 11.3113V11.367C2.93384 12.4228 3.299 13.4461 3.96741 14.2633C4.63583 15.0806 5.56635 15.6414 6.60116 15.8508C5.92743 16.0336 5.22092 16.0605 4.53524 15.9295C4.827 16.8383 5.39572 17.6331 6.16174 18.2025C6.92775 18.7719 7.85269 19.0875 8.807 19.1049C7.8586 19.8498 6.77265 20.4004 5.61127 20.7253C4.4499 21.0502 3.23588 21.1429 2.03864 20.9982C4.1283 22.342 6.56083 23.0554 9.04529 23.0532C17.4555 23.0532 22.053 16.0869 22.053 10.0455C22.053 9.84872 22.0486 9.64978 22.0399 9.45412C22.9344 8.80741 23.7066 8.00531 24.32 7.0876Z" fill="white"/>
</svg>
