<svg width="30" height="29" viewBox="0 0 30 29" fill="none" xmlns="http://www.w3.org/2000/svg">
<path d="M15.412 4.8252C16.0561 4.82881 17.6675 4.84449 19.3803 4.91324L19.9882 4.93978C21.7118 5.02059 23.4342 5.16051 24.2893 5.39812C25.4292 5.71896 26.3241 6.65253 26.6269 7.83698C27.1093 9.71859 27.1696 13.3877 27.1769 14.2767L27.1781 14.46V14.6699C27.1696 15.5588 27.1093 19.2292 26.6269 21.1096C26.3205 22.2976 25.4243 23.2324 24.2893 23.5484C23.4342 23.786 21.7118 23.9259 19.9882 24.0068L19.3803 24.0345C17.6675 24.102 16.0561 24.1189 15.412 24.1213L15.1285 24.1225H14.821C13.458 24.1141 7.7577 24.0526 5.94364 23.5484C4.80502 23.2276 3.90885 22.294 3.6061 21.1096C3.12364 19.228 3.06333 15.5588 3.05609 14.6699V14.2767C3.06333 13.3877 3.12364 9.71738 3.6061 7.83698C3.91246 6.64891 4.80864 5.71413 5.94484 5.39933C7.7577 4.89395 13.4592 4.83243 14.8222 4.8252H15.412ZM12.7042 10.2529V18.696L19.9411 14.4745L12.7042 10.2529Z" fill="white"/>
</svg>
